<?xml version="1.0" standalone="no"?>
<!DOCTYPE svg PUBLIC "-//W3C//DTD SVG 20010904//EN"
 "http://www.w3.org/TR/2001/REC-SVG-20010904/DTD/svg10.dtd">
<svg version="1.0" xmlns="http://www.w3.org/2000/svg"
 width="310.000000pt" height="310.000000pt" viewBox="0 0 310.000000 310.000000"
 preserveAspectRatio="xMidYMid meet">
<g transform="translate(0.000000,310.000000) scale(0.100000,-0.100000)"
fill="#000000" stroke="none">
<path d="M1403 2652 c-86 -82 -92 -91 -104 -145 l-12 -57 -96 -46 c-53 -25
-116 -58 -141 -73 -25 -16 -67 -34 -95 -40 -92 -23 -184 -80 -285 -177 -52
-50 -119 -113 -149 -140 -102 -93 -187 -239 -227 -389 -26 -97 -26 -370 -1
-465 77 -283 237 -476 469 -567 35 -13 97 -42 139 -63 86 -45 218 -83 364
-105 255 -38 558 2 760 100 50 24 119 55 154 69 120 48 191 105 426 342 165
165 243 391 232 669 -8 206 -65 366 -183 508 -84 102 -217 190 -337 221 -29 8
-82 32 -117 55 -84 53 -242 115 -352 137 l-86 18 5 111 6 112 -63 6 c-35 4
-97 7 -139 7 l-76 0 -92 -88z m265 -10 c9 -6 10 -25 6 -69 l-7 -61 -54 -4
c-30 -1 -57 -1 -59 1 -6 7 -5 107 2 125 7 17 88 23 112 8z m130 -238 c140 -28
303 -93 379 -150 35 -26 59 -92 104 -276 23 -94 26 -97 86 -80 l21 7 -33 130
c-18 72 -36 138 -40 149 -7 16 -5 17 16 11 103 -31 235 -141 302 -251 153
-252 155 -608 6 -861 -51 -87 -171 -201 -256 -246 -40 -21 -73 -33 -73 -27 0
6 7 26 14 45 27 64 58 187 49 196 -4 4 -23 10 -42 11 l-33 3 -23 -81 c-22 -80
-68 -208 -83 -230 -14 -23 -117 -67 -210 -90 -224 -57 -495 -49 -741 22 -120
35 -165 63 -185 116 -19 52 -66 216 -66 232 -1 28 -17 37 -54 31 -45 -9 -45
-13 -2 -148 22 -71 30 -107 22 -107 -17 0 -123 65 -174 107 -95 78 -184 230
-222 378 -54 211 -29 425 72 617 57 110 217 253 315 282 l22 7 -20 -58 c-11
-32 -31 -100 -45 -152 -27 -104 -25 -111 31 -111 30 0 31 1 54 93 27 107 77
245 98 269 40 45 290 146 414 167 87 14 214 12 297 -5z"/>
<path d="M2030 1715 c-38 -46 -147 -231 -143 -242 8 -20 311 -19 319 1 5 13
-133 237 -154 250 -5 3 -15 -1 -22 -9z"/>
<path d="M1141 1605 c-42 -67 -71 -122 -67 -130 8 -22 304 -22 312 0 8 20
-135 245 -155 245 -9 0 -47 -48 -90 -115z"/>
</g>
</svg>
