<?xml version="1.0" encoding="utf-8"?>
<!-- Generator: Adobe Illustrator 19.1.0, SVG Export Plug-In . SVG Version: 6.00 Build 0)  -->
<svg version="1.1" id="Layer_1" xmlns="http://www.w3.org/2000/svg" xmlns:xlink="http://www.w3.org/1999/xlink" x="0px" y="0px"
	 viewBox="0 0 300 300" enable-background="new 0 0 300 300" xml:space="preserve">
<g>
	<path fill="#FFFFFF" d="M150,50l20.3,2.9L196.5,79v45.2l-17.8,39v21.2l48.5,15.8l20.3,20.3V250H150H52.5v-29.5l20.3-20.3l48.5-15.8
		v-21.2l-17.8-39V79l26.1-26.1L150,50 M150,48l-0.3,0l-20.3,2.9l-0.7,0.1l-0.5,0.5l-26.1,26.1l-0.6,0.6V79v45.2v0.4l0.2,0.4
		l17.7,38.6V183l-47.2,15.3l-0.5,0.1l-0.3,0.3l-20.3,20.3l-0.6,0.6v0.8V250v2h2H150h97.5h2v-2v-29.5v-0.8l-0.6-0.6l-20.3-20.3
		l-0.3-0.3l-0.5-0.1L180.6,183v-19.3l17.7-38.6l0.2-0.4v-0.4V79v-0.8l-0.6-0.6l-26.1-26.1l-0.5-0.5l-0.7-0.1L150.3,48L150,48L150,48
		z"/>
</g>
</svg>
