<?xml version="1.0" encoding="utf-8"?>
<!-- Generator: Adobe Illustrator 18.1.1, SVG Export Plug-In . SVG Version: 6.00 Build 0)  -->
<svg version="1.1" id="Layer_1" xmlns="http://www.w3.org/2000/svg" xmlns:xlink="http://www.w3.org/1999/xlink" x="0px" y="0px"
	 viewBox="0 0 792 1008" enable-background="new 0 0 792 1008" xml:space="preserve">
<path fill="#FFFFFF" d="M605.2,627.4l-2.5-0.5l-120.9-39.4v-46.2L528,440.4l1-2v-126l-74.5-74.5l-57.4-8.2h-2.3l-57.4,8.2L263,312.4
	v125.7l1,2L310.2,541v46.5l-120.9,39.2l-2.5,0.5l-58.5,58.5v92.6h535.4v-92.3L605.2,627.4z M325.2,598.4v-60.7l-47-103V318.6
	l66.3-66.3l51.5-7.3l51.2,7.3l66.5,66.3v116.2l-47,103v60.7l130.4,42.5l51.3,51.3V763H143.6v-70.8l51.3-51.3L325.2,598.4z"/>
</svg>
