<?xml version="1.0" encoding="utf-8"?>
<!-- Generator: Adobe Illustrator 18.1.1, SVG Export Plug-In . SVG Version: 6.00 Build 0)  -->
<svg version="1.1" id="Layer_1" xmlns="http://www.w3.org/2000/svg" xmlns:xlink="http://www.w3.org/1999/xlink" x="0px" y="0px"
	 viewBox="0 0 792 1008" enable-background="new 0 0 792 1008" xml:space="preserve">
<g>
	<path fill="#FFFFFF" d="M577.3,450.1L449.1,321.6L313.2,457.5l23.8,23.8L124.1,694.1l80.7,81l213.3-213.3l24.3,24.3L577.3,450.1z
		 M358.7,481.6L335,457.8l114.1-114.6l107,107L442.7,564.5l-24.3-24.3L205.1,753.5l-59.2-59.2L358.7,481.6z"/>
	<path fill="#FFFFFF" d="M457.7,305.7l-72.8-72.8L224.5,393.4l72.8,72.8L457.7,305.7z M297.3,444.7L246,393.4l138.9-138.9l51.3,51.3
		L297.3,444.7z"/>
	<path fill="#FFFFFF" d="M595.1,445.2L434.6,605.6l72.8,72.8L667.9,518L595.1,445.2z M595.1,466.7l51.3,51.3L507.4,656.9l-51.3-51.3
		L595.1,466.7z"/>
</g>
</svg>
