<?xml version="1.0" encoding="utf-8"?>
<!-- Generator: Adobe Illustrator 19.1.0, SVG Export Plug-In . SVG Version: 6.00 Build 0)  -->
<svg version="1.1" id="Layer_1" xmlns="http://www.w3.org/2000/svg" xmlns:xlink="http://www.w3.org/1999/xlink" x="0px" y="0px"
	 viewBox="0 0 300 300" enable-background="new 0 0 300 300" xml:space="preserve">
<g>
	<g>
		<path fill="#FFFFFF" d="M170.1,86.4l43.2,43.2l-45.6,46l-7.8-7.8l-1.4-1.4l-1.4,1.4l-79.4,79.4l-25.1-25.1l79.2-79.2l1.4-1.4
			l-1.4-1.4l-7.6-7.6L170.1,86.4 M170.1,83.6l-48.8,48.8l9,9l-80.6,80.6L77.6,250l80.8-80.8l9.2,9.2l48.4-48.8L170.1,83.6
			L170.1,83.6z"/>
	</g>
	<g>
		<path fill="#FFFFFF" d="M145.8,52.8l22.1,22.1l-55.3,55.3l-22.1-22.1L145.8,52.8 M145.8,50l-58.1,58.1l24.9,24.9l58.1-58.1
			L145.8,50L145.8,50z"/>
	</g>
	<g>
		<path fill="#FFFFFF" d="M225.4,133.2l22.1,22.1l-55.3,55.3l-22.1-22.1L225.4,133.2 M225.4,130.4l-58.1,58.1l24.9,24.9l58.1-58.1
			L225.4,130.4L225.4,130.4z"/>
	</g>
</g>
</svg>
