<svg xmlns="http://www.w3.org/2000/svg" width="167.9" height="99" viewBox="0 0 167.9 99"><style type="text/css">.st0{fill:#303030;} .st1{fill:none;stroke:#303030;stroke-width:1.5;stroke-linecap:round;stroke-miterlimit:10;} .st2{fill:#757576;} .st3{fill:#3D3D3D;} .st4{fill:none;stroke:#303030;stroke-miterlimit:10;} .st5{fill:none;stroke:#C3212F;stroke-miterlimit:10;} .st6{fill:#C3212F;} .st7{fill:#FFFFFF;stroke:#C3212F;stroke-miterlimit:10;} .st8{fill:none;stroke:#303030;stroke-width:0.5;stroke-miterlimit:10;} .st9{fill:none;stroke:#000000;stroke-width:0.5;stroke-miterlimit:10;} .st10{fill:none;stroke:#000000;stroke-width:0.5;stroke-miterlimit:10;stroke-dasharray:3.9955,3.9955;} .st11{opacity:0.35;} .st12{fill:none;stroke:#000000;stroke-miterlimit:10;} .st13{fill:none;stroke:#000000;stroke-linecap:round;stroke-linejoin:round;stroke-miterlimit:10;} .st14{fill:none;stroke:#000000;stroke-width:4;stroke-linecap:round;stroke-miterlimit:10;} .st15{fill:none;stroke:#000000;stroke-width:0.5;stroke-linecap:round;stroke-linejoin:round;stroke-miterlimit:10;} .st16{fill:none;stroke:#000000;stroke-linejoin:round;stroke-miterlimit:10;} .st17{fill:#FFFFFF;} .st18{fill:none;stroke:#FFFFFF;stroke-miterlimit:10;} .st19{opacity:0.2;} .st20{opacity:0.1;} .st21{opacity:0.6;} .st22{display:none;fill:#FFFFFF;} .st23{stroke:#FFFFFF;stroke-miterlimit:10;} .st24{fill:none;stroke:#FFFFFF;stroke-linecap:square;stroke-miterlimit:10;} .st25{fill:none;stroke:#FFFFFF;stroke-linecap:round;stroke-miterlimit:10;} .st26{fill:#C3202F;} .st27{fill:#FFFFFF;stroke:#FFFFFF;stroke-miterlimit:10;} .st28{fill:#FFFFFF;stroke:#FFFFFF;stroke-width:0.75;stroke-miterlimit:10;} .st29{display:none;} .st30{display:inline;fill:#FFFFFF;} .st31{fill:none;stroke:#FFFFFF;stroke-width:0.75;stroke-linecap:square;stroke-miterlimit:10;} .st32{fill:none;stroke:#FFFFFF;stroke-width:0.75;stroke-linecap:round;stroke-miterlimit:10;} .st33{display:inline;} .st34{display:inline;stroke:#FFFFFF;stroke-width:2;stroke-miterlimit:10;} .st35{fill:#20201F;} .st36{fill:none;stroke:#FFFFFF;stroke-width:0.5;stroke-linecap:square;stroke-miterlimit:10;} .st37{fill:none;stroke:#FFFFFF;stroke-width:0.5;stroke-linecap:round;stroke-miterlimit:10;} .st38{fill:#FFFFFF;stroke:#FFFFFF;stroke-width:0.5;stroke-miterlimit:10;} .st39{fill:none;stroke:#FFFFFF;stroke-width:0.5;stroke-miterlimit:10;} .st40{fill:none;stroke:#FFFFFF;stroke-linecap:square;stroke-linejoin:bevel;stroke-miterlimit:10;} .st41{fill:#BCBEC0;} .st42{opacity:0.6;fill:#FFFFFF;}</style><g id="Desktop_Design_Mock"><g id="Pumpkin_5_"><path class="st18" d="M107.9 31.4h29.5s27.5 2 27.5 32.1l-26.4 33.7h-33.4s-28.4-.8-28.4-32.9l31.2-32.9zM112.4 31.4s-10.8 5.1-10.8 32.9l10.8 32.9M103.3 32s-16.8 6.8-16.8 31.1 14.2 33.7 18.6 34.1M130 31.4s10.5 6.8 10.5 32.9l-10.1 32.9M136.2 31.4s19.2 4.7 19.2 32.9l-19.2 32.9"/><path class="st27" d="M113.3 31.4l3.8-3.6s-.3-10.4 10.5-17.4l3.6 6.8s-6.7 2.9-6.7 10.3l4 4-15.2-.1z"/></g><path class="st17" d="M47.4 45.7l7 6.6v18.7l8.7 7.5v8.7l-11.5 10.8h-21.1l-8-9.9v-8s-18.1-27.4-21.3-43.9l2.8-3.4s18 36.8 22.7 41.5l10.8-14.5v-12l2.6-2.6v-3.5s-10.1-.9-6.9-12.9l-8.4-18.8 15.3 8.2 3.3-14.8 9.4 19s11.7 9.5.5 15.8l-5.9 3.5v4z"/><path class="st28" d="M53.8 29.2l10.2-13.4M53.7 30.1l14.4-10.9M53.5 31.1l12.9-7.2"/></g></svg>