<?xml version="1.0" encoding="utf-8"?>
<!-- Generator: Adobe Illustrator 18.1.1, SVG Export Plug-In . SVG Version: 6.00 Build 0)  -->
<svg version="1.1" id="Layer_1" xmlns="http://www.w3.org/2000/svg" xmlns:xlink="http://www.w3.org/1999/xlink" x="0px" y="0px"
	 viewBox="0 0 105.7 106.1" enable-background="new 0 0 105.7 106.1" xml:space="preserve">
<path fill="#FFFFFF" d="M79,105.1l0.1-0.2L55.6,94.1l-7.8-14.5l4.2-25.2l-0.5-0.1L51.1,54l-1.3,1.3L49.6,55l-21.4,8l-13.9-4.2
	L1.3,40.6L1,40.8V29.4H0v76.6h79.4v-1H79z M54.8,94.9l22.3,10.2H62.5l0.1-0.2l-18.4-8.4l-6.1-11.3l3.3-19.7l-0.3,0l9.6-9.6l-4,24
	L54.8,94.9z M24,81.1l0-0.2L14.4,83l-6.5-1.9l-6.6-7L1,74.3v-8.3l8,10.2l9.1,2.7l11.7-3.8L24,81.1z M31.1,73.9l-0.1-0.2l-13,4.2
	l-8.5-2.5L1.3,64.8L1,65.1V55l10.2,14.2l11.5,3.4l15.5-5.8L31.1,73.9z M1,75.3L7.3,82l7,2.1l8.6-1.9l-3.2,3.2l0,0l-7.9,1.9l-5.3-1.6
	l-5.4-5.9L1,79.9V75.3z M5.9,86.6l5.8,1.7l6.6-1.6L15,90l0,0l-5.9,1.4l-3.9-1.2l-4-4.4L1,86.1v-4.9L5.9,86.6z M6,99l-2.1,0.5
	l-1.3-0.4l-1.5-1.6L1,97.6v-1.5l1.7,1.8l2.4,0.7l1.7-0.4L6,99z M8.1,97L8.1,97l-3,0.7l-1.9-0.6l-2-2.2L1,95v-2.5l2.5,2.7l3.2,1
	l2.8-0.7L8.1,97z M10.9,94.2l-4.1,1L4,94.3l-2.9-3.1L1,91.4v-4.3l3.7,4l4.4,1.3l4.6-1.1L10.9,94.2z M1,98.8l1.1,1.2l1.8,0.6l0.8-0.2
	L4.1,101l0-0.1l-1.3,0.3L2,101l-0.9-1L1,100.1V98.8z M1.5,101.8l1.2,0.4l0.1,0L1,104v-2.7L1.5,101.8z M3.1,103.3l0,0.4l0.7,1.3
	l0.2,0.1H1.4L3.1,103.3z M4.5,104.2l-0.4-0.8l0.1-1.2l1-1l-0.1,1.4l1,1.9l0.8,0.5H5.8l0,0L4.5,104.2z M6.9,103.9l-0.8-1.4l0.1-2.2
	l1.1-1.1l-0.1,2.4l1.3,2.5l1.7,1.1H8.8L6.9,103.9z M9.3,103.3l-1.1-2l0.1-3.2l1.9-1.8L10,100l1.8,3.3l2.8,1.7h-2.5L9.3,103.3z
	 M12.6,102.6L11,99.8l0.2-4.6l3.3-3.3l-0.2,5.8l2.5,4.6l4.6,2.8h-4.8L12.6,102.6z M17.5,101.5l-2.2-4.1l0.3-6.6l3.7-3.7l-0.3,7.9
	l3.2,6l6.6,4h-5.5L17.5,101.5z M22.9,100.3l-3-5.5l0.4-8.7l3.7-3.7l-0.3,10l3.9,7.2l8.4,5.3h-5.4L22.9,100.3z M28.4,99l-3.7-6.8
	L25,81.4l6.3-6.3l-1.7,14.1l5.1,9.4l12.5,6.4h-9.4l0-0.1L28.4,99z M35.4,98l-4.8-8.9L32.5,74l7.7-7.7l-3.2,19l6.4,11.9l17.1,7.8
	H49.2l0-0.1L35.4,98z M13.7,59.7L28.1,64l0.2,0l20.3-7.6l-9.1,9.1l-0.1-0.2l-16.7,6.2l-10.8-3.2L1.5,54L1,54.4V41.9L13.7,59.7z"/>
</svg>
