<?xml version="1.0" encoding="utf-8"?>
<!-- Generator: Adobe Illustrator 19.1.0, SVG Export Plug-In . SVG Version: 6.00 Build 0)  -->
<svg version="1.1" id="Layer_1" xmlns="http://www.w3.org/2000/svg" xmlns:xlink="http://www.w3.org/1999/xlink" x="0px" y="0px"
	 viewBox="0 0 300 300" enable-background="new 0 0 300 300" xml:space="preserve">
<g>
	<g>
		<path fill="#FFFFFF" d="M171.9,52.8l21.7,21.7l-9.4,9.4l-1.4,1.4l1.4,1.4l29.2,29.2l1.4,1.4l1.4-1.4l9.1-9.1l21.9,21.9
			L128.7,247.2l-20.8-20.8l9.1-9.1l1.4-1.4l-1.4-1.4L87.6,185l-1.4-1.4l-1.4,1.4l-9.4,9.4l-22.6-22.6L171.9,52.8 M136.3,203l1.4-1.4
			l64.1-64.1l1.4-1.4l-1.4-1.4l-35.4-35.4l-1.4-1.4l-1.4,1.4l-64.1,64.1l-1.4,1.4l1.4,1.4l35.4,35.4L136.3,203 M171.9,50L50,171.9
			l25.4,25.4l10.8-10.8l29.4,29.4l-10.6,10.6l23.6,23.6L250,128.7L225.3,104l-10.6,10.6l-29.2-29.2l10.8-10.8L171.9,50L171.9,50z
			 M136.3,200.2l-35.4-35.4l64.1-64.1l35.4,35.4L136.3,200.2L136.3,200.2z"/>
	</g>
</g>
</svg>
