<?xml version="1.0" encoding="utf-8"?>
<!-- Generator: Adobe Illustrator 18.1.1, SVG Export Plug-In . SVG Version: 6.00 Build 0)  -->
<svg version="1.1" id="Layer_1" xmlns="http://www.w3.org/2000/svg" xmlns:xlink="http://www.w3.org/1999/xlink" x="0px" y="0px"
	 viewBox="0 0 792 1008" enable-background="new 0 0 792 1008" xml:space="preserve">
<g>
	<path fill="#FFFFFF" d="M594.8,375.5l-28,28l-70-70l28.5-28.5l-71.5-72L124.9,561.8l74.1,74.1l28.5-28.5l70.5,70.5l-28,28
		l69.4,69.4l327.6-327.6L594.8,375.5z M319.6,678l-7.2-7.2l-77.6-77.9l-7.2-7.2l-28.5,28.5l-52.6-52.6l307.3-307.1l50.2,50.2
		l-28.5,28.5l91.6,91.6l27.7-27.7l50.7,50.7L339.8,753.5l-47.8-47.8L319.6,678z"/>
	<path fill="#FFFFFF" d="M543.5,467.3L435.6,359.4L251.9,543.1L359.8,651L543.5,467.3z M359.8,629.5l-86.4-86.4l162.2-162.2
		l86.4,86.4L359.8,629.5z"/>
</g>
</svg>
