<?xml version="1.0" encoding="utf-8"?>
<!-- Generator: Adobe Illustrator 18.1.1, SVG Export Plug-In . SVG Version: 6.00 Build 0)  -->
<svg version="1.1" id="Layer_1" xmlns="http://www.w3.org/2000/svg" xmlns:xlink="http://www.w3.org/1999/xlink" x="0px" y="0px"
	 viewBox="0 0 108.6 109.2" enable-background="new 0 0 108.6 109.2" xml:space="preserve">
<path fill="#FFFFFF" d="M0,8.8C0,9,0,9.1,0,9.2v7.6c0,0.1,0,0.2,0,0.3l0,65.4h1v-0.6c0.1-0.1,0.2-0.1,0.2-0.2l11-24.3l14.8-8.1
	l25.7,4.3l54.7,55.2l0.4,0.4l0.7-0.7L52.2,51.6c0-0.1,0.1-0.2,0-0.4l-8.2-22.1l4.3-14.3L67.1,1.3c0.1-0.1,0.1-0.2,0.2-0.3H79V0L0,0
	V8.8z M1,51c0,0,0.1-0.1,0.1-0.1l7.2-14.3l9.1-5l15.5,1.9l7.9,8l-19.6-3.3L9.1,44.9L1,62.6V51z M1,39.1C1.1,39.1,1.1,39.1,1,39.1
	l6.2-9.8l6.9-3.8l11.1,0.3l6.5,6.6l-14.5-1.8l-9.7,5.3L1,48.8V39.1z M1,31.6l4.8-8l5.6-3.1l8.9,0.4l3.8,3.9l-10.3-0.3l-7.4,4L1,37.3
	V31.6z M1,24l3.6-6l4.2-2.3l6.8,0.3l3.8,3.8l-8.1-0.4l-6.1,3.3L1,29.7V24z M1,17.1L3.6,13l2.9-1.6l4.7,0.2l3.4,3.5l-6-0.3l-4.7,2.5
	L1,22.1V17.1z M1,12.6l1.8-3l2-1.1l3.3,0.1l1.9,1.9l-3.9-0.2l-3.4,1.9l-1.8,3V12.6z M1,9.1l1.2-2l1.4-0.8L6,6.4l1.2,1.2L4.7,7.4
	L2.2,8.8L1,10.6V9.1z M1,6C1.1,6,1.1,6,1,6l0.9-1.4l0.8-0.4l1.2,0.1L5,5.3L3.5,5.3l-1.9,1L1,7.2V6z M21.3,20.4
	c0-0.1-0.1-0.2-0.2-0.3l-1.9-8l1.6-5.4l6-5.6c0,0,0.1-0.1,0.1-0.1h4.6l-6.8,6.5l-0.1,0.1l-2.1,7.2l2,8.9L21.3,20.4z M25.8,24.9
	c0-0.1,0-0.1,0-0.2l-2.2-9.9l2-6.7l7.2-6.9c0.1-0.1,0.1-0.2,0.1-0.3H41L30.5,9.3l-2.8,9.4l3.9,12.1L25.8,24.9z M20,6.1l-1.8,6
	l1.6,6.8l-3.4-3.4c0,0,0,0,0,0L15,9.4l1.2-4l4.5-4.2c0.1-0.1,0.1-0.2,0.1-0.3h4.7L20,6.1z M5.4,4.3c0,0,0-0.1,0-0.1L5,2.8L5.2,2
	l1-0.9c0,0,0.1-0.1,0.1-0.1h1.2L6.3,2.1L5.7,4l0.2,0.8L5.4,4.3z M7.3,6.2L6.8,4.1l0.4-1.4l1.7-1.5c0,0,0.1-0.1,0.1-0.2h1.3L8.3,2.8
	L7.6,5.2L8,7L7.3,6.2z M9.4,8.4C9.4,8.3,9.4,8.3,9.4,8.4L8.7,5.2l0.6-1.9l2.3-2.1c0.1-0.1,0.1-0.1,0.1-0.2h2.3l-2.8,2.6l-1,3.3
	l0.7,2.9L9.4,8.4z M12.2,11.2l-1-4.3L12,4.1l3.2-3c0.1-0.1,0.1-0.1,0.1-0.2h4.2l-4.2,3.9L14,9.4l1.1,4.8L12.2,11.2z M4.4,1.5L4,2.8
	L4,3L2.1,1h2.8L4.4,1.5z M2.9,3.2l-0.4,0L1.2,3.9L1,4.1V1.4L2.9,3.2z M33.1,32.3c0-0.1,0-0.1,0-0.2l-4.3-13.4l2.6-8.8l10.9-8.6
	c0.1-0.1,0.2-0.2,0.2-0.3h9.9L37.7,11.5l-3.5,11.8l5.9,16.1L33.1,32.3z M26.9,48.3l-15.4,8.4L1,79.8V64.9c0.1,0,0.1-0.1,0.2-0.2
	l8.6-19.1l11.6-6.3l20.2,3.4c0.1,0,0.2,0,0.3-0.1l9.7,9.8L26.9,48.3z M47.5,14.2L43.1,29l0,0.2l7.7,20.9L41.7,41c0-0.1,0-0.2,0-0.3
	l-6.4-17.3l3.3-11.2L53.3,1.6c0.1-0.1,0.2-0.3,0.2-0.4c0-0.1,0-0.1-0.1-0.2h12.3L47.5,14.2z"/>
</svg>
