<?xml version="1.0" encoding="utf-8"?>
<!-- Generator: Adobe Illustrator 18.1.1, SVG Export Plug-In . SVG Version: 6.00 Build 0)  -->
<svg version="1.1" id="Layer_1" xmlns="http://www.w3.org/2000/svg" xmlns:xlink="http://www.w3.org/1999/xlink" x="0px" y="0px"
	 viewBox="-312 456.3 166.5 96.7" enable-background="new -312 456.3 166.5 96.7" xml:space="preserve">
<path fill="#FFFFFF" d="M-174.7,484.8h-0.7c-0.2-0.1-0.4-0.1-0.4-0.1l0,0.1h-7.6l-3.6-3.6c0.1-6.8,6.1-9.5,6.4-9.6l0.5-0.2l-4.1-7.8
	l-0.5,0.3c-10,6.5-10.7,16-10.7,17.6l-3.5,3.3h-5.3c-0.1,0-2,0.1-4.8,0.6l0,0c0,0-0.1,0-0.1,0.1c-8.9,1.8-26.8,8.5-26.8,32.7
	c0,31.1,26.6,33.3,28.8,33.4c0,0,0,0,0,0l0,0c0.1,0,0.1,0,0.1,0h33.5c0.3-0.1,26.8-4,26.8-34.2
	C-146.7,487.1-174.4,484.8-174.7,484.8z M-176,550.6h-4.5c2.6-2.6,9.3-11.1,9.2-32.4c0-21.3-6.9-29.8-9.6-32.4h5.3
	c1.2,0.4,5.2,1.8,9.1,5.7c4.3,4.2,9.4,12.2,9.4,26.6C-157.2,545.5-175.8,550.5-176,550.6L-176,550.6z M-234.9,518.2
	c0-20.9,13.6-28.3,22.7-31c-1.5,1-3.4,2.6-5.4,4.8c-3.9,4.4-8.5,12.3-8.5,25c0,19.6,9.2,29.5,15.1,33.1
	C-218.7,548.5-234.9,542.4-234.9,518.2z M-207,550.6L-207,550.6c-4-0.5-18.1-9.5-18.1-33.7c0-22.1,14.3-29.6,16.3-30.5
	c2.7-0.5,4.6-0.6,4.6-0.6h3c-3,2.4-9.8,10.2-9.8,32.4c0,22.1,6.8,30,9.8,32.4L-207,550.6C-207,550.6-207,550.6-207,550.6z
	 M-210,518.2c0-27,10.4-32.3,10.5-32.4h0.8l16.4,0.1l-0.1-0.1h0c1.2,0.9,10.2,8.6,10.2,32.4c0,23.9-8.6,31.5-9.8,32.4h-17.5
	C-199.6,550.6-210,545.2-210,518.2z M-173,550.5c1.9-0.9,4.5-2.4,7.1-5c4.4-4.4,9.7-12.7,9.7-27.4c0-20.7-10.3-28.9-16-31.9
	c2.6,0.5,6.8,1.7,11,4.3c9,5.5,13.5,14.6,13.5,26.9C-147.7,544.2-169.1,549.7-173,550.5z"/>
<g>
	<path fill="#FFFFFF" d="M-248.4,469.5l0.6,0.5l-10.2,13.4l-0.6-0.5L-248.4,469.5z M-258.4,483.9l14.4-10.8"/>
</g>
<path fill="#FFFFFF" d="M-257.7,506.1l-7-6.6v-3.9l5.9-3.5c5.6-3.2,5.5-7.2,3.9-10.3l11.1-8.4l-0.5-0.6l-11,8.3
	c-1.6-2.8-4-4.7-4-4.7l-9.4-19l-3.3,14.8l-15.2-8.2l8.4,18.6c-3.2,12,6.9,12.9,6.9,12.9v3.5l-2.6,2.6v12l-10.8,14.5
	c-4.7-4.7-22.7-41.5-22.7-41.5l-2.9,3.5c3.2,16.5,21.3,43.9,21.3,43.9v8l8,9.9h21.1l11.5-10.7v-8.7l-8.7-7.5V506.1z"/>
<g>
	<path fill="#FFFFFF" d="M-245.8,477.4l0.4,0.7l-12.9,7.2l-0.4-0.7L-245.8,477.4z"/>
</g>
</svg>
