<?xml version="1.0" encoding="utf-8"?>
<!-- Generator: Adobe Illustrator 19.1.0, SVG Export Plug-In . SVG Version: 6.00 Build 0)  -->
<svg version="1.1" id="Layer_1" xmlns="http://www.w3.org/2000/svg" xmlns:xlink="http://www.w3.org/1999/xlink" x="0px" y="0px"
	 viewBox="0 0 396.5 72.6" enable-background="new 0 0 396.5 72.6" xml:space="preserve">
<g>
	<g>
		<g>
			<g>
				<path fill="#FFFFFF" d="M150.2,9.8v53.3h-3.5V9.8H150.2 M150.8,9.3h-4.5v54.3h4.5V9.3L150.8,9.3z"/>
			</g>
			<g>
				<path fill="#FFFFFF" d="M168.4,55.1v3.5h-3.5v-3.5H168.4 M168.9,54.6h-4.5v4.5h4.5V54.6L168.9,54.6z"/>
			</g>
			<g>
				<path fill="#FFFFFF" d="M163.8,55.1v3.5h-3.5v-3.5H163.8 M164.3,54.6h-4.5v4.5h4.5V54.6L164.3,54.6z"/>
			</g>
		</g>
		<g>
			<g>
				<path fill="#FFFFFF" d="M70.2,14.4v3.5h-3.5v-3.5H70.2 M70.7,13.9h-4.5v4.5h4.5V13.9L70.7,13.9z"/>
			</g>
			<g>
				<path fill="#FFFFFF" d="M74.8,14.4v3.5h-3.5v-3.5H74.8 M75.3,13.9h-4.5v4.5h4.5V13.9L75.3,13.9z"/>
			</g>
			<g>
				<path fill="#FFFFFF" d="M74.8,18.9v3.5h-3.5v-3.5H74.8 M75.3,18.4h-4.5v4.5h4.5V18.4L75.3,18.4z"/>
			</g>
			<g>
				<path fill="#FFFFFF" d="M79.3,23.4v3.5h-3.5v-3.5H79.3 M79.8,22.9h-4.5v4.5h4.5V22.9L79.8,22.9z"/>
			</g>
			<g>
				<path fill="#FFFFFF" d="M79.3,41.5V45h-3.5v-3.5H79.3 M79.8,41h-4.5v4.5h4.5V41L79.8,41z"/>
			</g>
			<g>
				<path fill="#FFFFFF" d="M79.3,46v3.5h-3.5V46H79.3 M79.8,45.5h-4.5v4.5h4.5V45.5L79.8,45.5z"/>
			</g>
			<g>
				<path fill="#FFFFFF" d="M70.2,59.6v3.5h-3.5v-3.5H70.2 M70.7,59.1h-4.5v4.5h4.5V59.1L70.7,59.1z"/>
			</g>
			<g>
				<path fill="#FFFFFF" d="M74.8,50.6v3.5h-3.5v-3.5H74.8 M75.3,50.1h-4.5v4.5h4.5V50.1L75.3,50.1z"/>
			</g>
			<g>
				<path fill="#FFFFFF" d="M70.2,55.1v3.5h-3.5v-3.5H70.2 M70.7,54.6h-4.5v4.5h4.5V54.6L70.7,54.6z"/>
			</g>
		</g>
		<g>
			<g>
				<path fill="#FFFFFF" d="M210.1,41.5V45h-3.5v-3.5H210.1 M210.6,41h-4.5v4.5h4.5V41L210.6,41z"/>
			</g>
			<g>
				<path fill="#FFFFFF" d="M205.6,18.9v44.3H202V18.9H205.6 M206.1,18.4h-4.5v45.3h4.5V18.4L206.1,18.4z"/>
			</g>
			<g>
				<path fill="#FFFFFF" d="M205.6,14.4v3.5H202v-3.5H205.6 M206.1,13.9h-4.5v4.5h4.5V13.9L206.1,13.9z"/>
			</g>
			<g>
				<path fill="#FFFFFF" d="M205.6,9.8v3.5H202V9.8H205.6 M206.1,9.3h-4.5v4.5h4.5V9.3L206.1,9.3z"/>
			</g>
		</g>
		<g>
			<g>
				<path fill="#FFFFFF" d="M13.5,9.8v3.5H10V9.8H13.5 M14,9.3H9.5v4.5H14V9.3L14,9.3z"/>
			</g>
			<g>
				<path fill="#FFFFFF" d="M18,41.5V45h-3.5v-3.5H18 M18.5,41H14v4.5h4.5V41L18.5,41z"/>
			</g>
			<g>
				<path fill="#FFFFFF" d="M27.1,18.9v3.5h-3.5v-3.5H27.1 M27.6,18.4h-4.5v4.5h4.5V18.4L27.6,18.4z"/>
			</g>
			<g>
				<path fill="#FFFFFF" d="M13.5,14.4v48.8H10V14.4H13.5 M14,13.9H9.5v49.8H14V13.9L14,13.9z"/>
			</g>
		</g>
		<g>
			<g>
				<path fill="#FFFFFF" d="M117.4,9.8v3.5h-3.5V9.8H117.4 M117.9,9.3h-4.5v4.5h4.5V9.3L117.9,9.3z"/>
			</g>
			<g>
				<path fill="#FFFFFF" d="M126.4,37v3.5h-3.5V37H126.4 M126.9,36.5h-4.5V41h4.5V36.5L126.9,36.5z"/>
			</g>
			<g>
				<path fill="#FFFFFF" d="M130.9,37v3.5h-3.5V37H130.9 M131.4,36.5h-4.5V41h4.5V36.5L131.4,36.5z"/>
			</g>
			<g>
				<path fill="#FFFFFF" d="M121.9,37v3.5h-3.5V37H121.9 M122.4,36.5h-4.5V41h4.5V36.5L122.4,36.5z"/>
			</g>
			<g>
				<path fill="#FFFFFF" d="M126.4,14.4v3.5h-3.5v-3.5H126.4 M126.9,13.9h-4.5v4.5h4.5V13.9L126.9,13.9z"/>
			</g>
			<g>
				<path fill="#FFFFFF" d="M121.9,14.4v3.5h-3.5v-3.5H121.9 M122.4,13.9h-4.5v4.5h4.5V13.9L122.4,13.9z"/>
			</g>
			<g>
				<path fill="#FFFFFF" d="M121.9,55.1v3.5h-3.5v-3.5H121.9 M122.4,54.6h-4.5v4.5h4.5V54.6L122.4,54.6z"/>
			</g>
			<g>
				<path fill="#FFFFFF" d="M126.4,59.6v3.5h-8.1v-3.5H126.4 M126.9,59.1h-9.1v4.5h9.1V59.1L126.9,59.1z"/>
			</g>
			<g>
				<path fill="#FFFFFF" d="M117.4,14.4v48.8h-3.5V14.4H117.4 M117.9,13.9h-4.5v49.8h4.5V13.9L117.9,13.9z"/>
			</g>
		</g>
		<g>
			<g>
				<path fill="#FFFFFF" d="M359.4,41.5v21.6h-3.5V41.5H359.4 M359.9,41h-4.5v22.6h4.5V41L359.9,41z"/>
			</g>
			<g>
				<path fill="#FFFFFF" d="M377.5,41.5v21.6H374V41.5H377.5 M378,41h-4.5v22.6h4.5V41L378,41z"/>
			</g>
			<g>
				<path fill="#FFFFFF" d="M373,41.5V45h-3.5v-3.5H373 M373.5,41h-4.5v4.5h4.5V41L373.5,41z"/>
			</g>
			<g>
				<path fill="#FFFFFF" d="M359.4,9.8v21.6h-3.5V9.8H359.4 M359.9,9.3h-4.5V32h4.5V9.3L359.9,9.3z"/>
			</g>
			<g>
				<path fill="#FFFFFF" d="M363.9,32.5v8.1h-3.5v-8.1H363.9 M364.4,32h-4.5V41h4.5V32L364.4,32z"/>
			</g>
			<g>
				<path fill="#FFFFFF" d="M359.4,32.5v8.1h-3.5v-8.1H359.4 M359.9,32h-4.5V41h4.5V32L359.9,32z"/>
			</g>
			<g>
				<path fill="#FFFFFF" d="M377.5,27.9v3.5H374v-3.5H377.5 M378,27.4h-4.5V32h4.5V27.4L378,27.4z"/>
			</g>
			<g>
				<path fill="#FFFFFF" d="M377.5,9.8v17.1H374V9.8H377.5 M378,9.3h-4.5v18.1h4.5V9.3L378,9.3z"/>
			</g>
		</g>
		<g>
			<g>
				<path fill="#FFFFFF" d="M322,18.9v35.2h-3.5V18.9H322 M322.5,18.4h-4.5v36.2h4.5V18.4L322.5,18.4z"/>
			</g>
			<g>
				<path fill="#FFFFFF" d="M322,59.6v3.5h-3.5v-3.5H322 M322.5,59.1h-4.5v4.5h4.5V59.1L322.5,59.1z"/>
			</g>
			<g>
				<path fill="#FFFFFF" d="M322,55.1v3.5h-3.5v-3.5H322 M322.5,54.6h-4.5v4.5h4.5V54.6L322.5,54.6z"/>
			</g>
			<g>
				<path fill="#FFFFFF" d="M326.5,9.8v3.5H323V9.8H326.5 M327,9.3h-4.5v4.5h4.5V9.3L327,9.3z"/>
			</g>
			<g>
				<path fill="#FFFFFF" d="M322,9.8v3.5h-3.5V9.8H322 M322.5,9.3h-4.5v4.5h4.5V9.3L322.5,9.3z"/>
			</g>
			<g>
				<path fill="#FFFFFF" d="M331,9.8v3.5h-3.5V9.8H331 M331.5,9.3H327v4.5h4.5V9.3L331.5,9.3z"/>
			</g>
			<g>
				<path fill="#FFFFFF" d="M322,14.4v3.5h-3.5v-3.5H322 M322.5,13.9h-4.5v4.5h4.5V13.9L322.5,13.9z"/>
			</g>
			<g>
				<path fill="#FFFFFF" d="M340.1,14.4v3.5h-3.5v-3.5H340.1 M340.6,13.9H336v4.5h4.5V13.9L340.6,13.9z"/>
			</g>
		</g>
		<g>
			<g>
				<path fill="#FFFFFF" d="M243,59.6v3.5h-3.5v-3.5H243 M243.5,59.1h-4.5v4.5h4.5V59.1L243.5,59.1z"/>
			</g>
			<g>
				<path fill="#FFFFFF" d="M256.5,50.6v3.5H253v-3.5H256.5 M257,50.1h-4.5v4.5h4.5V50.1L257,50.1z"/>
			</g>
			<g>
				<path fill="#FFFFFF" d="M243,9.8v44.3h-3.5V9.8H243 M243.5,9.3h-4.5v45.3h4.5V9.3L243.5,9.3z"/>
			</g>
			<g>
				<path fill="#FFFFFF" d="M243,55.1v3.5h-3.5v-3.5H243 M243.5,54.6h-4.5v4.5h4.5V54.6L243.5,54.6z"/>
			</g>
			<g>
				<path fill="#FFFFFF" d="M252,55.1v3.5h-3.5v-3.5H252 M252.5,54.6H248v4.5h4.5V54.6L252.5,54.6z"/>
			</g>
			<g>
				<path fill="#FFFFFF" d="M252,50.6v3.5h-3.5v-3.5H252 M252.5,50.1H248v4.5h4.5V50.1L252.5,50.1z"/>
			</g>
		</g>
		<g>
			<g>
				<path fill="#FFFFFF" d="M289.4,37v3.5h-3.5V37H289.4 M289.9,36.5h-4.5V41h4.5V36.5L289.9,36.5z"/>
			</g>
			<g>
				<path fill="#FFFFFF" d="M293.9,41.5V45h-3.5v-3.5H293.9 M294.4,41h-4.5v4.5h4.5V41L294.4,41z"/>
			</g>
			<g>
				<path fill="#FFFFFF" d="M298.5,45.9v3.5h-3.5v-3.5H298.5 M299,45.4h-4.5v4.5h4.5V45.4L299,45.4z"/>
			</g>
			<g>
				<path fill="#FFFFFF" d="M303,59.6v3.5h-3.5v-3.5H303 M303.5,59.1H299v4.5h4.5V59.1L303.5,59.1z"/>
			</g>
			<g>
				<path fill="#FFFFFF" d="M280.4,32.5V36h-3.5v-3.5H280.4 M280.9,32h-4.5v4.5h4.5V32L280.9,32z"/>
			</g>
			<g>
				<path fill="#FFFFFF" d="M280.4,59.6v3.5h-3.5v-3.5H280.4 M280.9,59.1h-4.5v4.5h4.5V59.1L280.9,59.1z"/>
			</g>
			<g>
				<path fill="#FFFFFF" d="M280.4,37v3.5h-3.5V37H280.4 M280.9,36.5h-4.5V41h4.5V36.5L280.9,36.5z"/>
			</g>
			<g>
				<path fill="#FFFFFF" d="M280.4,41.5v17.1h-3.5V41.5H280.4 M280.9,41h-4.5v18.1h4.5V41L280.9,41z"/>
			</g>
			<g>
				<path fill="#FFFFFF" d="M280.4,9.8v3.5h-3.5V9.8H280.4 M280.9,9.3h-4.5v4.5h4.5V9.3L280.9,9.3z"/>
			</g>
			<g>
				<path fill="#FFFFFF" d="M284.9,14.4v3.5h-3.5v-3.5H284.9 M285.4,13.9h-4.5v4.5h4.5V13.9L285.4,13.9z"/>
			</g>
			<g>
				<path fill="#FFFFFF" d="M280.4,14.4v17.1h-3.5V14.4H280.4 M280.9,13.9h-4.5V32h4.5V13.9L280.9,13.9z"/>
			</g>
		</g>
	</g>
	<g opacity="0.6">
		<g>
			<rect x="18.5" y="36.5" fill="#FFFFFF" width="4.5" height="4.5"/>
			<g>
				<rect x="14" y="9.3" fill="#FFFFFF" width="4.5" height="4.5"/>
				<rect x="14" y="13.9" fill="#FFFFFF" width="4.5" height="4.5"/>
				<rect x="18.5" y="9.3" fill="#FFFFFF" width="4.5" height="4.5"/>
				<rect x="23.1" y="13.9" fill="#FFFFFF" width="4.5" height="4.5"/>
				<rect x="18.5" y="41" fill="#FFFFFF" width="4.5" height="4.5"/>
				<rect x="23.1" y="41" fill="#FFFFFF" width="4.5" height="4.5"/>
				<rect x="14" y="36.5" fill="#FFFFFF" width="4.5" height="4.5"/>
				<rect x="23.1" y="36.5" fill="#FFFFFF" width="4.5" height="4.5"/>
				<rect x="14" y="18.4" fill="#FFFFFF" width="4.5" height="18.1"/>
				<rect x="27.6" y="18.4" fill="#FFFFFF" width="4.5" height="18.1"/>
				<rect x="14" y="45.5" fill="#FFFFFF" width="4.5" height="18.1"/>
			</g>
		</g>
		<rect x="46.9" y="9.3" fill="#FFFFFF" width="4.5" height="54.3"/>
		<g>
			<rect x="155.3" y="54.6" fill="#FFFFFF" width="4.5" height="4.5"/>
			<rect x="155.3" y="59.1" fill="#FFFFFF" width="9.1" height="4.5"/>
			<rect x="150.8" y="9.3" fill="#FFFFFF" width="4.5" height="54.3"/>
		</g>
		<g>
			<rect x="126.9" y="54.6" fill="#FFFFFF" width="4.5" height="4.5"/>
			<rect x="131.4" y="32" fill="#FFFFFF" width="4.5" height="4.5"/>
			<rect x="117.9" y="32" fill="#FFFFFF" width="4.5" height="4.5"/>
			<rect x="122.4" y="32" fill="#FFFFFF" width="4.5" height="4.5"/>
			<rect x="126.9" y="32" fill="#FFFFFF" width="4.5" height="4.5"/>
			<rect x="131.4" y="13.9" fill="#FFFFFF" width="4.5" height="4.5"/>
			<rect x="117.9" y="9.3" fill="#FFFFFF" width="4.5" height="4.5"/>
			<rect x="126.9" y="13.9" fill="#FFFFFF" width="4.5" height="4.5"/>
			<rect x="117.9" y="18.4" fill="#FFFFFF" width="4.5" height="13.6"/>
			<rect x="117.9" y="41" fill="#FFFFFF" width="4.5" height="13.6"/>
			<rect x="122.4" y="54.6" fill="#FFFFFF" width="4.5" height="4.5"/>
			<rect x="126.9" y="59.1" fill="#FFFFFF" width="4.5" height="4.5"/>
		</g>
		<g>
			<rect x="206.1" y="13.9" fill="#FFFFFF" width="4.5" height="4.5"/>
			<rect x="206.1" y="22.9" fill="#FFFFFF" width="4.5" height="4.5"/>
			<rect x="219.6" y="13.9" fill="#FFFFFF" width="4.5" height="4.5"/>
			<rect x="219.6" y="22.9" fill="#FFFFFF" width="4.5" height="4.5"/>
			<rect x="219.6" y="32" fill="#FFFFFF" width="4.5" height="4.5"/>
			<rect x="206.1" y="32" fill="#FFFFFF" width="4.5" height="4.5"/>
			<rect x="206.1" y="45.5" fill="#FFFFFF" width="4.5" height="4.5"/>
			<rect x="206.1" y="36.5" fill="#FFFFFF" width="4.5" height="4.5"/>
			<rect x="210.6" y="36.5" fill="#FFFFFF" width="4.5" height="4.5"/>
			<rect x="206.1" y="18.4" fill="#FFFFFF" width="4.5" height="4.5"/>
			<rect x="206.1" y="27.4" fill="#FFFFFF" width="4.5" height="4.5"/>
			<rect x="219.6" y="41" fill="#FFFFFF" width="4.5" height="4.5"/>
			<rect x="210.6" y="41" fill="#FFFFFF" width="9.1" height="4.5"/>
			<rect x="206.1" y="9.3" fill="#FFFFFF" width="4.5" height="4.5"/>
			<rect x="210.6" y="9.3" fill="#FFFFFF" width="4.5" height="4.5"/>
			<rect x="215.1" y="13.9" fill="#FFFFFF" width="4.5" height="4.5"/>
			<rect x="215.1" y="36.5" fill="#FFFFFF" width="4.5" height="4.5"/>
			<rect x="219.6" y="18.4" fill="#FFFFFF" width="4.5" height="4.5"/>
			<rect x="219.6" y="27.4" fill="#FFFFFF" width="4.5" height="4.5"/>
			<rect x="219.6" y="36.5" fill="#FFFFFF" width="4.5" height="4.5"/>
		</g>
		<g>
			<rect x="359.9" y="41" fill="#FFFFFF" width="4.5" height="22.6"/>
			<rect x="359.9" y="9.3" fill="#FFFFFF" width="4.5" height="22.6"/>
			<rect x="364.4" y="32" fill="#FFFFFF" width="4.5" height="9.1"/>
			<rect x="378" y="9.3" fill="#FFFFFF" width="4.5" height="18.1"/>
			<rect x="378" y="41" fill="#FFFFFF" width="4.5" height="22.6"/>
			<rect x="373.5" y="32" fill="#FFFFFF" width="4.5" height="4.5"/>
			<rect x="368.9" y="32" fill="#FFFFFF" width="4.5" height="4.5"/>
		</g>
		<g>
			<rect x="322.5" y="18.4" fill="#FFFFFF" width="4.5" height="36.2"/>
			<rect x="322.5" y="54.6" fill="#FFFFFF" width="4.5" height="4.5"/>
			<rect x="322.5" y="59.1" fill="#FFFFFF" width="4.5" height="4.5"/>
			<rect x="336" y="54.6" fill="#FFFFFF" width="4.5" height="4.5"/>
			<rect x="327" y="59.1" fill="#FFFFFF" width="4.5" height="4.5"/>
			<rect x="331.5" y="54.6" fill="#FFFFFF" width="4.5" height="4.5"/>
			<rect x="331.5" y="9.3" fill="#FFFFFF" width="4.5" height="4.5"/>
			<rect x="327" y="13.9" fill="#FFFFFF" width="4.5" height="4.5"/>
			<rect x="322.5" y="13.9" fill="#FFFFFF" width="4.5" height="4.5"/>
			<rect x="331.5" y="13.9" fill="#FFFFFF" width="4.5" height="4.5"/>
		</g>
		<g>
			<rect x="248" y="9.3" fill="#FFFFFF" width="4.5" height="18.1"/>
			<rect x="243.5" y="54.6" fill="#FFFFFF" width="4.5" height="4.5"/>
			<rect x="243.5" y="59.1" fill="#FFFFFF" width="4.5" height="4.5"/>
			<rect x="248" y="36.5" fill="#FFFFFF" width="4.5" height="13.6"/>
			<rect x="248" y="27.4" fill="#FFFFFF" width="4.5" height="4.5"/>
			<rect x="257" y="9.3" fill="#FFFFFF" width="4.5" height="4.5"/>
			<rect x="257" y="13.9" fill="#FFFFFF" width="4.5" height="4.5"/>
			<rect x="257" y="54.6" fill="#FFFFFF" width="4.5" height="4.5"/>
			<rect x="257" y="18.4" fill="#FFFFFF" width="4.5" height="36.2"/>
			<rect x="252.5" y="54.6" fill="#FFFFFF" width="4.5" height="4.5"/>
			<rect x="248" y="32" fill="#FFFFFF" width="4.5" height="4.5"/>
		</g>
		<g>
			<rect x="285.4" y="32" fill="#FFFFFF" width="4.5" height="4.5"/>
			<rect x="299" y="13.9" fill="#FFFFFF" width="4.5" height="40.7"/>
			<rect x="299" y="54.6" fill="#FFFFFF" width="4.5" height="4.5"/>
			<rect x="280.9" y="36.5" fill="#FFFFFF" width="4.5" height="4.5"/>
			<rect x="280.9" y="41" fill="#FFFFFF" width="4.5" height="18.1"/>
			<rect x="280.9" y="27.4" fill="#FFFFFF" width="4.5" height="9.1"/>
			<rect x="289.9" y="32" fill="#FFFFFF" width="4.5" height="9.1"/>
			<rect x="294.4" y="36.5" fill="#FFFFFF" width="4.5" height="9.1"/>
			<rect x="280.9" y="18.4" fill="#FFFFFF" width="4.5" height="9.1"/>
		</g>
		<g>
			<rect x="66.2" y="9.3" fill="#FFFFFF" width="4.5" height="4.5"/>
			<rect x="75.3" y="18.4" fill="#FFFFFF" width="4.5" height="4.5"/>
			<rect x="79.8" y="22.9" fill="#FFFFFF" width="4.5" height="4.5"/>
			<rect x="84.3" y="22.9" fill="#FFFFFF" width="4.5" height="4.5"/>
			<rect x="79.8" y="27.4" fill="#FFFFFF" width="4.5" height="4.5"/>
			<rect x="79.8" y="32" fill="#FFFFFF" width="4.5" height="4.5"/>
			<rect x="79.8" y="36.5" fill="#FFFFFF" width="4.5" height="4.5"/>
			<rect x="79.8" y="41" fill="#FFFFFF" width="4.5" height="4.5"/>
			<rect x="79.8" y="45.5" fill="#FFFFFF" width="4.5" height="4.5"/>
			<rect x="88.8" y="27.4" fill="#FFFFFF" width="4.5" height="4.5"/>
			<rect x="97.9" y="54.6" fill="#FFFFFF" width="4.5" height="4.5"/>
			<rect x="97.9" y="13.9" fill="#FFFFFF" width="4.5" height="4.5"/>
			<rect x="93.3" y="18.4" fill="#FFFFFF" width="4.5" height="4.5"/>
			<rect x="93.4" y="50.1" fill="#FFFFFF" width="4.5" height="4.5"/>
			<rect x="88.8" y="9.3" fill="#FFFFFF" width="4.5" height="4.5"/>
			<rect x="70.7" y="59.1" fill="#FFFFFF" width="4.5" height="4.5"/>
			<rect x="97.9" y="59.1" fill="#FFFFFF" width="4.5" height="4.5"/>
			<rect x="93.4" y="54.6" fill="#FFFFFF" width="4.5" height="4.5"/>
			<rect x="79.8" y="50.1" fill="#FFFFFF" width="4.5" height="4.5"/>
			<rect x="75.3" y="27.4" fill="#FFFFFF" width="4.5" height="4.5"/>
			<rect x="70.7" y="54.6" fill="#FFFFFF" width="4.5" height="4.5"/>
			<rect x="84.3" y="50.1" fill="#FFFFFF" width="4.5" height="4.5"/>
			<rect x="75.3" y="50.1" fill="#FFFFFF" width="4.5" height="4.5"/>
			<rect x="70.7" y="9.3" fill="#FFFFFF" width="4.5" height="4.5"/>
		</g>
	</g>
	<g>
		<g>
			<rect x="75.3" y="59.1" fill="#FFFFFF" width="4.5" height="4.5"/>
			<rect x="75.3" y="54.6" fill="#FFFFFF" width="4.5" height="4.5"/>
			<rect x="75.3" y="9.3" fill="#FFFFFF" width="4.5" height="4.5"/>
			<rect x="75.3" y="13.9" fill="#FFFFFF" width="4.5" height="4.5"/>
			<rect x="84.3" y="27.4" fill="#FFFFFF" width="4.5" height="4.5"/>
			<rect x="84.3" y="32" fill="#FFFFFF" width="4.5" height="4.5"/>
			<rect x="84.3" y="36.5" fill="#FFFFFF" width="4.5" height="4.5"/>
			<rect x="84.3" y="41" fill="#FFFFFF" width="4.5" height="4.5"/>
			<rect x="84.3" y="45.5" fill="#FFFFFF" width="4.5" height="4.5"/>
			<rect x="88.8" y="45.5" fill="#FFFFFF" width="4.5" height="4.5"/>
			<rect x="88.8" y="41" fill="#FFFFFF" width="4.5" height="4.5"/>
			<rect x="88.8" y="22.9" fill="#FFFFFF" width="4.5" height="4.5"/>
			<rect x="88.8" y="13.9" fill="#FFFFFF" width="4.5" height="4.5"/>
			<rect x="93.3" y="9.3" fill="#FFFFFF" width="4.5" height="4.5"/>
			<rect x="97.9" y="9.3" fill="#FFFFFF" width="4.5" height="4.5"/>
			<rect x="93.4" y="13.9" fill="#FFFFFF" width="4.5" height="4.5"/>
			<rect x="88.8" y="18.4" fill="#FFFFFF" width="4.5" height="4.5"/>
			<rect x="88.8" y="59.1" fill="#FFFFFF" width="4.5" height="4.5"/>
			<rect x="88.8" y="54.6" fill="#FFFFFF" width="4.5" height="4.5"/>
			<rect x="93.4" y="59.1" fill="#FFFFFF" width="4.5" height="4.5"/>
			<rect x="88.8" y="50.1" fill="#FFFFFF" width="4.5" height="4.5"/>
		</g>
		<g>
			<rect x="224.2" y="18.4" fill="#FFFFFF" width="4.5" height="9.1"/>
			<rect x="224.2" y="41" fill="#FFFFFF" width="4.5" height="4.5"/>
			<rect x="224.2" y="9.3" fill="#FFFFFF" width="4.5" height="4.5"/>
			<rect x="224.2" y="27.4" fill="#FFFFFF" width="4.5" height="9.1"/>
			<rect x="224.2" y="36.5" fill="#FFFFFF" width="4.5" height="4.5"/>
			<rect x="224.2" y="13.9" fill="#FFFFFF" width="4.5" height="4.5"/>
			<rect x="210.6" y="27.4" fill="#FFFFFF" width="4.5" height="4.5"/>
			<rect x="206.1" y="50.1" fill="#FFFFFF" width="4.5" height="4.5"/>
			<rect x="210.6" y="13.9" fill="#FFFFFF" width="4.5" height="4.5"/>
			<rect x="206.1" y="54.6" fill="#FFFFFF" width="4.5" height="9.1"/>
			<rect x="210.6" y="32" fill="#FFFFFF" width="4.5" height="4.5"/>
			<rect x="210.6" y="22.9" fill="#FFFFFF" width="4.5" height="4.5"/>
			<rect x="210.6" y="18.4" fill="#FFFFFF" width="4.5" height="4.5"/>
			<rect x="210.6" y="54.6" fill="#FFFFFF" width="4.5" height="4.5"/>
			<rect x="210.6" y="45.5" fill="#FFFFFF" width="4.5" height="9.1"/>
			<rect x="210.6" y="59.1" fill="#FFFFFF" width="4.5" height="4.5"/>
			<rect x="219.6" y="9.3" fill="#FFFFFF" width="4.5" height="4.5"/>
			<rect x="215.1" y="9.3" fill="#FFFFFF" width="4.5" height="4.5"/>
		</g>
		<g>
			<rect x="131.4" y="54.6" fill="#FFFFFF" width="4.5" height="4.5"/>
			<rect x="131.4" y="59.1" fill="#FFFFFF" width="4.5" height="4.5"/>
			<rect x="131.4" y="36.5" fill="#FFFFFF" width="4.5" height="4.5"/>
			<rect x="131.4" y="9.3" fill="#FFFFFF" width="4.5" height="4.5"/>
			<rect x="122.4" y="9.3" fill="#FFFFFF" width="4.5" height="4.5"/>
			<rect x="126.9" y="9.3" fill="#FFFFFF" width="4.5" height="4.5"/>
			<rect x="122.4" y="18.4" fill="#FFFFFF" width="4.5" height="13.6"/>
			<rect x="122.4" y="41" fill="#FFFFFF" width="4.5" height="13.6"/>
		</g>
		<g>
			<rect x="18.5" y="13.9" fill="#FFFFFF" width="4.5" height="4.5"/>
			<rect x="23.1" y="9.3" fill="#FFFFFF" width="4.5" height="4.5"/>
			<rect x="27.6" y="9.3" fill="#FFFFFF" width="4.5" height="4.5"/>
			<rect x="27.6" y="41" fill="#FFFFFF" width="4.5" height="4.5"/>
			<rect x="27.6" y="13.9" fill="#FFFFFF" width="4.5" height="4.5"/>
			<rect x="27.6" y="36.5" fill="#FFFFFF" width="4.5" height="4.5"/>
			<rect x="32.1" y="13.9" fill="#FFFFFF" width="4.5" height="4.5"/>
			<rect x="32.1" y="36.5" fill="#FFFFFF" width="4.5" height="4.5"/>
			<rect x="18.5" y="18.4" fill="#FFFFFF" width="4.5" height="18.1"/>
			<rect x="18.5" y="45.5" fill="#FFFFFF" width="4.5" height="18.1"/>
			<rect x="32.1" y="18.4" fill="#FFFFFF" width="4.5" height="18.1"/>
		</g>
		<rect x="51.4" y="9.3" fill="#FFFFFF" width="4.5" height="54.3"/>
		<g>
			<rect x="168.9" y="59.1" fill="#FFFFFF" width="4.5" height="4.5"/>
			<rect x="168.9" y="54.6" fill="#FFFFFF" width="4.5" height="4.5"/>
			<rect x="164.3" y="59.1" fill="#FFFFFF" width="4.5" height="4.5"/>
			<rect x="155.3" y="9.3" fill="#FFFFFF" width="4.5" height="45.3"/>
		</g>
		<g>
			<rect x="252.5" y="59.1" fill="#FFFFFF" width="4.5" height="4.5"/>
			<rect x="261.6" y="59.1" fill="#FFFFFF" width="4.5" height="4.5"/>
			<rect x="257" y="59.1" fill="#FFFFFF" width="4.5" height="4.5"/>
			<rect x="243.5" y="9.3" fill="#FFFFFF" width="4.5" height="45.3"/>
			<rect x="261.6" y="9.3" fill="#FFFFFF" width="4.5" height="4.5"/>
			<rect x="261.6" y="18.4" fill="#FFFFFF" width="4.5" height="36.2"/>
			<rect x="261.6" y="13.9" fill="#FFFFFF" width="4.5" height="4.5"/>
			<rect x="261.6" y="54.6" fill="#FFFFFF" width="4.5" height="4.5"/>
			<rect x="248" y="59.1" fill="#FFFFFF" width="4.5" height="4.5"/>
		</g>
		<g>
			<rect x="285.4" y="22.9" fill="#FFFFFF" width="4.5" height="4.5"/>
			<rect x="303.5" y="9.3" fill="#FFFFFF" width="4.5" height="54.3"/>
			<rect x="285.4" y="27.4" fill="#FFFFFF" width="4.5" height="4.5"/>
			<rect x="280.9" y="59.1" fill="#FFFFFF" width="4.5" height="4.5"/>
			<rect x="289.9" y="27.4" fill="#FFFFFF" width="4.5" height="4.5"/>
			<rect x="294.4" y="32" fill="#FFFFFF" width="4.5" height="4.5"/>
		</g>
		<g>
			<rect x="340.6" y="45.5" fill="#FFFFFF" width="4.5" height="9.1"/>
			<rect x="340.6" y="18.4" fill="#FFFFFF" width="4.5" height="4.5"/>
			<rect x="340.6" y="22.9" fill="#FFFFFF" width="4.5" height="4.5"/>
			<rect x="327" y="18.4" fill="#FFFFFF" width="4.5" height="36.2"/>
			<rect x="331.5" y="59.1" fill="#FFFFFF" width="4.5" height="4.5"/>
			<rect x="327" y="54.6" fill="#FFFFFF" width="4.5" height="4.5"/>
			<rect x="340.6" y="59.1" fill="#FFFFFF" width="4.5" height="4.5"/>
			<rect x="340.6" y="41" fill="#FFFFFF" width="4.5" height="4.5"/>
			<rect x="340.6" y="27.4" fill="#FFFFFF" width="4.5" height="4.5"/>
			<rect x="336" y="59.1" fill="#FFFFFF" width="4.5" height="4.5"/>
			<rect x="340.6" y="54.6" fill="#FFFFFF" width="4.5" height="4.5"/>
			<rect x="340.6" y="9.3" fill="#FFFFFF" width="4.5" height="4.5"/>
			<rect x="336" y="9.3" fill="#FFFFFF" width="4.5" height="4.5"/>
			<rect x="340.6" y="13.9" fill="#FFFFFF" width="4.5" height="4.5"/>
		</g>
		<g>
			<rect x="364.4" y="41" fill="#FFFFFF" width="4.5" height="22.6"/>
			<rect x="364.4" y="9.3" fill="#FFFFFF" width="4.5" height="22.6"/>
			<rect x="373.5" y="36.5" fill="#FFFFFF" width="4.5" height="4.5"/>
			<rect x="382.5" y="9.3" fill="#FFFFFF" width="4.5" height="54.3"/>
			<rect x="368.9" y="36.5" fill="#FFFFFF" width="4.5" height="4.5"/>
			<rect x="364.4" y="36.5" fill="#FFFFFF" width="4.5" height="4.5"/>
			<rect x="378" y="27.4" fill="#FFFFFF" width="4.5" height="13.6"/>
		</g>
	</g>
</g>
</svg>
