<?xml version="1.0" encoding="utf-8"?>
<!-- Generator: Adobe Illustrator 18.1.1, SVG Export Plug-In . SVG Version: 6.00 Build 0)  -->
<svg version="1.1" id="Layer_1" xmlns="http://www.w3.org/2000/svg" xmlns:xlink="http://www.w3.org/1999/xlink" x="0px" y="0px"
	 viewBox="0 0 362.9 243.1" enable-background="new 0 0 362.9 243.1" xml:space="preserve">
<path fill="#FFFFFF" d="M241.6,209.5C241.6,209.5,241.6,209.5,241.6,209.5l-241.4,33l-0.2,0l0.1,0.5L241.8,210l22,10.1l7.4,13.7
	l-1.4,9c0,0.1,0.1,0.3,0.2,0.3c0.1,0,0.3-0.1,0.3-0.2l1.5-9.2l-7.5-14l0-0.1l-21.5-9.8l15.2-2.1c0,0,0,0,0,0l17.4,7.9l5.8,10.7
	l-2.7,13l-3.3,3.3l0.4,0.4l7.1-7.1c0,0,0.1,0,0.1,0l15.8-5.1l10.5,3.1l7,9c0.1,0.1,0.2,0.1,0.4,0c0.1-0.1,0.1-0.2,0-0.4l-7.1-9.1
	l0-0.1l-10.8-3.2l-15.2,5l7.9-7.9c0,0,0.1,0,0.1,0l11.6-2.6l8,2.4l8.1,8.5v7.4h0.5v-7.8c0.1,0,0.1,0,0.2-0.1l5.6-8.9l6.5-3.5
	l10.3,0.3c0,0,0.1,0,0.1,0l6.4,6.5l-13.9-1.7l-8.7,4.7l-5.1,9.6c-0.1,0.1,0,0.3,0.1,0.3c0.1,0.1,0.3,0,0.3-0.1l5.1-9.4l8.5-4.6
	l14.3,1.8c0,0,0,0,0.1,0l7.6,7.8l-18.4-3l-13.9,7.7c-0.1,0.1-0.2,0.2-0.1,0.3c0.1,0.1,0.2,0.2,0.3,0.1l13.7-7.6l18.6,3.1
	c0.1,0,0.2,0,0.2-0.1l4.2,4.3l0.4-0.4l-5.6-5.7l-5.4-16.9l3.1-10.5l7.3-5.6c0.1-0.1,0.1-0.2,0-0.4c0-0.1-0.1-0.1-0.2-0.1
	c-0.1,0-0.1,0-0.2,0.1l-7.4,5.7l-3.2,10.8l5.2,16.1l-8.2-8.3l-2.6-12.3l2.4-8l8.5-8.1h5.7v-0.5h-6c0-0.1,0-0.1-0.1-0.2l-8.9-5.6
	l-3.5-6.5l0.3-10.3l3.6-3.6l0.1,0c0.1,0,0.2-0.1,0.2-0.2l2.5-2.5l-1.7,13.9l4.7,8.7l8.2,4.2c0.1,0.1,0.3,0,0.3-0.1
	c0.1-0.1,0-0.3-0.1-0.3l-8.1-4.1l-4.6-8.5l1.8-14.3c0,0,0,0,0,0l7.8-7.8l-3.1,18.5l0,0.1l5.9,11c0.1,0.1,0.2,0.2,0.3,0.1
	c0.1-0.1,0.2-0.2,0.1-0.3l-5.8-10.8l3.1-18.6c0-0.1-0.1-0.2-0.1-0.3l3.2-3.2l-0.4-0.4l-5.2,5.2c-0.1,0-0.1,0-0.2,0l-12.2,6.2
	l-7.6-2.3l-6.6-11.8c0-0.1-0.1-0.1-0.1-0.1l2.5-11.2l7.5,15.3l9.8,2.9l0.1,0l12.2-7c0.1-0.1,0.2-0.2,0.1-0.3
	c-0.1-0.1-0.2-0.2-0.3-0.1l-12,6.9l-9.4-2.8l-7.7-15.7l3.2-14.4l8.3,19.2l0,0.1l11.4,3.4l6.5-4.1c0.1-0.1,0.2-0.2,0.1-0.3
	c-0.1-0.1-0.2-0.1-0.3-0.1l-6.3,4l-10.9-3.3l-8.6-19.7L362.9,2.1l0.1-0.2l-0.5-0.1l-21.2,95.8c0,0,0,0,0,0c-0.1,0-0.2,0-0.2,0.1
	l-25,37.4L292.6,146l-34.1-7.7l-0.2-0.2l0-0.1c0-0.1-0.1-0.2-0.2-0.2L120.2,0l-0.4,0.4l138,138c0,0,0,0,0,0c0,0.1,0,0.2,0.1,0.3
	l11.6,31.2l-6.2,20.8L241.6,209.5z M270.6,151.2c0,0,0.1,0.1,0.1,0.1l0,0l10.1,10.1c0,0,0,0,0,0.1l6.3,19.2l-3.8,12.8l-12.2,12.1
	l-12.3,1.7l15.8-14.7l5-16.8l0-0.1L270.6,151.2z M341.3,221.4l-5-5.1c0-0.1,0.1-0.1,0.1-0.2l-1.7-7.2l1.5-4.9l5.3-4.9h6.3l-6.7,6.1
	l-2,6.7l0,0.1L341.3,221.4z M287.6,230.2l1.7-9.3l-4.7-8.7l-12.4-6.3l10-1.4c0,0,0,0,0,0.1c0,0,0,0,0,0c0,0,0,0,0,0l8.9,5.6l3.5,6.5
	l-0.6,7c0,0.1,0,0.1,0,0.1L287.6,230.2z M290.4,170.9l4.9,4.9l2.8,11.6l-2.4,8l-6.5,7.7l-6.1,0.8l7.4-9.3l3-9.9l0-0.1L290.4,170.9z
	 M301,181.4C301,181.5,301,181.5,301,181.4l2.1,8.8l-1.8,5.9l-4.4,5.8l-7,1l6.2-7.3l2.5-8.2l-2.6-10.9L301,181.4z M310.2,190.8
	L310.2,190.8l2.3,2.2c0,0,0,0,0,0l0.3,3.1l-0.5,1.8l-2,1.9c-0.1,0.1-0.1,0.2,0,0.3l-2.9,0.4l2.9-2.8l0.9-2.7L310.2,190.8
	C310.2,190.7,310.2,190.8,310.2,190.8z M327.1,198.7h-1.8c0-0.1,0-0.1-0.1-0.1l-1.3-0.8l-0.5-0.8l0.1-1.3l1.4-1.4l-0.1,1.8l0.9,1.7
	L327.1,198.7C327.1,198.7,327.1,198.6,327.1,198.7z M324.2,198.6c-0.1,0-0.1,0-0.2,0.1l0,0h-3.6l2.5-2.5l0,0.8l0.6,1.1L324.2,198.6
	C324.3,198.6,324.2,198.6,324.2,198.6z M319.1,199.5L319.1,199.5l0,4l-0.7-0.8l-1.3-0.4l-1.1,0.3L319.1,199.5L319.1,199.5z
	 M319.6,204.1L319.6,204.1l0-4.2l3,3.1l-1.4-0.1l-1.1,0.6l-0.5,0.8C319.6,204.3,319.6,204.2,319.6,204.1z M322.6,202.4l-2.9-3
	l0.3-0.3h3.5l-0.8,0.7l-0.4,1.3L322.6,202.4z M319.7,198.7h-0.3v0.3l-0.1,0.1l-0.1-0.1l0.8-3.7l0.6,0.6l1,0.3l0.6-0.2L319.7,198.7z
	 M319.8,194.5C319.8,194.5,319.8,194.5,319.8,194.5c-0.1,0.1-0.1,0.2-0.1,0.3l-0.8,3.8l-3-3l1.5,0.1l1.8-0.5l0.6-0.9L319.8,194.5z
	 M315.4,195.9l3.1,3.1l-4.2,0.6l1.1-1l0.4-1.3L315.4,195.9z M318.3,199.5l-4,4l0.3-1.4L314,201l-1.2-0.7L318.3,199.5z M315.3,203.3
	C315.3,203.3,315.3,203.3,315.3,203.3l1.8-0.4l1.1,0.3l1,1.1v2.3l-1.4-1.6l-2-0.6l-1.9,0.5L315.3,203.3z M319.6,207.2
	C319.5,207.2,319.5,207.2,319.6,207.2l0-1.9c0.1,0,0.1,0,0.1-0.1l0.8-1.3l0.8-0.5l1.5,0.1c0.1,0,0.1,0,0.2-0.1l1.5,1.5l-2.3-0.1
	l-1.7,0.9L319.6,207.2z M323.2,203c0,0,0-0.1,0-0.2l-0.4-1.7l0.3-1.1l1.1-1h2.3l-1.6,1.4l-0.6,2l0.5,2L323.2,203z M323.2,195.2
	C323.2,195.2,323.2,195.2,323.2,195.2C323.2,195.2,323.2,195.2,323.2,195.2c-0.1,0-0.3,0.1-0.3,0.2c0,0,0,0,0,0l-1.2,0.3l-0.8-0.2
	l-0.7-0.8l0.5-2.3l1.2,1.3l1.5,0.5l1-0.2L323.2,195.2z M320.1,192.9l-1.2,1.8l-1.6,0.4l-2-0.1l-1.5-1.5l2.6,0.2l2.6-1l1.7-2.7
	L320.1,192.9z M313.1,193.6l1.8,1.8c-0.1,0.1-0.1,0.1-0.1,0.2l0.4,1.7l-0.3,1.1l-1.2,1.1c-0.1,0.1-0.1,0.1-0.1,0.2l-2.8,0.4l1.9-1.8
	l0.6-2L313.1,193.6z M312.3,200.3c0,0.1,0,0.2,0.1,0.2l1.3,0.8l0.4,0.8l-0.5,2c0,0,0,0,0,0l-0.9,0.9l0,0c-0.1,0-0.1,0.1-0.2,0.2
	l-0.3,0.3l0.1-2l-0.9-1.7l-1.9-1.2L312.3,200.3z M313,205.6l2.5-0.6l1.8,0.5l1.7,1.9v2.5l-2.2-2.4l-2.7-0.8l-3,0.7L313,205.6z
	 M319.5,210.4v-2.2l1.3-2.1l1.4-0.8l2.4,0.1c0.1,0,0.2,0,0.2-0.1l1.6,1.6l-3.2-0.1L321,208L319.5,210.4z M325.5,205.4l-0.6-2.7
	l0.5-1.8l1.9-1.7h2.5l-2.4,2.2l-0.8,2.7l0.8,3.2L325.5,205.4z M328.1,198.7l-2.1-1.3l-0.8-1.4l0.1-2.2l0,0l0.2,0
	c0.1,0,0.2-0.2,0.2-0.3c0,0,0,0,0,0l1.1-1.1l-0.1,2.8l1.2,2.2l2.4,1.5H328.1z M325.1,193.3l-1.6,0.4l-1.3-0.4l-1.3-1.4
	c0,0,0,0-0.1,0l0.5-2.2l1.6,1.7l2,0.6l1.9-0.5L325.1,193.3z M321,188.8c0,0-0.1,0-0.1,0.1l-2.2,3.5l-2.3,0.9l-3.1-0.2l-2.3-2.3h3.8
	l3.5-1.1l3.3-3.5L321,188.8z M308.9,200.8c0,0.1,0,0.1,0.1,0.2l2.1,1.3l0.8,1.4l-0.1,2.4c0,0,0,0,0,0l-1.5,1.5l0.1-2.7l-1.2-2.2
	l-2.6-1.6L308.9,200.8z M305.9,201.2c0,0,0,0.1,0.1,0.1l2.8,1.7l1.1,2l-0.1,3c0,0,0,0,0,0.1l-2.2,2.2l0.5-3.5l-1.6-3l-3.4-2.1
	L305.9,201.2z M310.5,208.1C310.5,208.1,310.5,208.1,310.5,208.1l3.7-0.9l2.4,0.7l2.4,2.7v3.6l-3.1-3.4l-3.7-1.1l-4.3,1L310.5,208.1
	z M319.5,214.5v-3.2c0,0,0.1,0,0.1-0.1l1.7-2.8l2-1.1l3.3,0.1c0.1,0,0.2-0.1,0.2-0.1l2.3,2.3l-4.4-0.2l-3,1.6L319.5,214.5z
	 M328,207.8c0,0,0-0.1,0-0.1l-0.9-3.7l0.7-2.4l2.7-2.4h3.6l-3.4,3.1l-1.1,3.7l1.1,4.6L328,207.8z M331.2,198.7
	C331.2,198.6,331.2,198.6,331.2,198.7l-2.9-1.8l-1.1-2l0.1-3.2l0.5-0.5c0,0,0.1,0,0.1-0.1l1.6-1.6l-0.2,4l1.6,3l3.4,2.1H331.2z
	 M329.7,188.7C329.7,188.7,329.7,188.7,329.7,188.7l-2.1,2.1l-2.6,0.6l-1.8-0.5l-1.7-1.9l0.8-3.4l2.3,2.5l2.7,0.8l2.9-0.7
	L329.7,188.7z M321.9,184.8C321.9,184.8,321.9,184.8,321.9,184.8c-0.1,0.1-0.1,0.2-0.1,0.3l0,0.2l-3.8,4l-3.3,1h-4.3l-2.9-2.9
	l5.7,0.2l4.9-1.6l4.6-5.3L321.9,184.8z M309.7,190.2c-0.1,0.1-0.1,0.1-0.1,0.3l1,4.5l-0.7,2.4l-3.3,3.2c0,0,0,0,0,0.1l-4,0.5l4.4-4
	l1.3-4.4l-1.3-5.4L309.7,190.2z M302.2,201.7l3.9,2.4l1.5,2.8l-0.6,3.9c0,0,0,0,0,0.1l-0.1,0.1c-0.1,0-0.1,0.1-0.1,0.1l-3.2,3.2
	l1.4-4.4l-2.3-4.2l-5.3-3.2L302.2,201.7z M296.7,202.5C296.7,202.5,296.7,202.5,296.7,202.5C296.7,202.5,296.7,202.6,296.7,202.5
	C296.8,202.6,296.8,202.6,296.7,202.5c0.1,0.1,0.1,0.1,0.1,0.1l5.6,3.4l2.1,3.9l-1.5,4.8c0,0.1,0,0.1,0,0.2l-3.9,3.9l0.9-5.5l-3.6-8
	l-6.1-1.8L296.7,202.5z M307.2,211.4l5-1.2l3.4,1l3.4,3.7v5.8l-4.6-5l-5.1-1.5l-6.5,1.6L307.2,211.4z M319.5,215.5
	C319.5,215.5,319.5,215.5,319.5,215.5l2.4-4l2.8-1.5l4.6,0.2c0,0,0,0,0,0c0.1,0,0.1,0,0.2-0.1l3.6,3.6l-6.3-0.3l-4.2,2.2l-3.1,5
	V215.5z M331.3,211.3C331.3,211.2,331.3,211.2,331.3,211.3l-1.2-5.2l1-3.4l3.7-3.4h5.8l-5,4.6l-1.5,5.1l1.7,6.9L331.3,211.3z
	 M335.4,198.7C335.4,198.7,335.4,198.7,335.4,198.7l-4-2.4l-1.5-2.8l0.2-4.4l1-1l0,0c0.1,0,0.1-0.1,0.2-0.2l2.4-2.4l-0.3,6l2.2,4.2
	l5,3.1H335.4z M330.9,187.5l-3.6,0.9l-2.5-0.7l-2.4-2.6l1-4.6l3.2,3.5l3.6,1.1l4.2-1L330.9,187.5z M323,179.7
	C323,179.7,323,179.7,323,179.7l-5.1,5.9l-4.7,1.6l-6.2-0.3l-4.6-4.6l8.6,0.7l7.3-2.4l6-6.8L323,179.7z M306.2,186.7
	C306.2,186.7,306.2,186.7,306.2,186.7l1.5,6.1l-1.2,4.1l-4.5,4.2c-0.1,0.1-0.1,0.2-0.1,0.2l-4.2,0.6l4.1-5.4l1.9-6.2l-1.9-8.1l0.1,0
	L306.2,186.7z M295.1,216.5l-3.6-6.6l0-0.1l-8.6-5.5l6.3-0.9c0,0,0,0,0,0l6.8,2.1l3.4,7.7l-0.9,6.1l-3.9,3.9L295.1,216.5z
	 M302.1,216.4l7.1-1.7l4.9,1.5l4.9,5.3v6.3l-6.1-6.7l-6.7-2l-0.1,0l-8.9,2.1L302.1,216.4z M319.5,227.7v-6c0,0,0,0,0,0l3.4-5.6
	l3.9-2.1l6.4,0.3c0.1,0,0.2,0,0.2-0.1l3.9,4l-8.2-0.4l-5.5,3L319.5,227.7z M341.6,198.7C341.6,198.6,341.6,198.6,341.6,198.7
	l-5.6-3.4l-2.1-3.9l0.3-6.4l1.2-1.2l0,0c0.1,0,0.1-0.1,0.2-0.2l2.5-2.5l-0.3,7.9l3,5.5l6.9,4.2H341.6z M338.4,180
	C338.4,180,338.4,180,338.4,180C338.4,180,338.4,180,338.4,180c-0.2,0-0.3,0.1-0.3,0.2l0,0l-3,3l-4.9,1.2l-3.4-1l-3.3-3.6l1.5-6.8
	l4.3,5.7l4.9,1.5l6.2-2.1L338.4,180z M324.6,172.6l-6.5,7.4l-7.1,2.3l-9.1-0.7l-4.9-4.9l11.7,0.7l0.1,0l9-3.1l8-7.3L324.6,172.6z
	 M326.1,165.8C326.1,165.8,326.1,165.8,326.1,165.8c-0.1,0.1-0.1,0.2-0.1,0.3l0,0.1l-8.4,7.7l-8.8,3.1l-12.1-0.8c0,0,0,0-0.1,0
	l-0.8-0.8c0,0,0,0-0.1-0.1l-4.7-4.7l15.1,1l11.6-4.3l10.7-11.9L326.1,165.8z M328.6,154.6C328.6,154.6,328.5,154.6,328.6,154.6
	l-11.1,12.4l-11.4,4.2l-15.6-1l-8-8l18.3,2l0.1,0l17.8-6.9l12.3-13.6L328.6,154.6z M289.9,170.3c0,0,0,0.1,0,0.1l3.1,14.1l-2.9,9.7
	l-7.7,9.6l-10.4,1.4l11.8-11.6l3.9-13.1l-6-18.5l0,0L289.9,170.3z M281.6,226.4l-5.9-11l0-0.1l-16.8-7.7l12.5-1.7l12.9,6.6l4.6,8.5
	l-1.7,9.6c0,0.1,0,0.1,0.1,0.2l-8.1,8.1L281.6,226.4z M311.3,226.8L311.3,226.8l-8.2-2.5l-0.1,0l-11.2,2.5l4.8-4.8l9.5-2.3l6.5,2
	l6.4,7v6.4L311.3,226.8z M331.8,222.4L331.8,222.4l-6.7,3.6l-0.1,0l-5.5,8.6v-5.8c0,0,0,0,0,0c0.1-0.1,0.1-0.2,0.1-0.2l4.5-7.4
	l5.3-2.8l8.5,0.4c0,0,0,0,0,0l3.8,3.9L331.8,222.4z M346.7,206.9L346.7,206.9l-2.5,8.2l0,0.1l2.4,11.6l-4.8-4.9
	c0.1-0.1,0.1-0.1,0.1-0.2l-2.3-9.6l2-6.5l7-6.4h6.4L346.7,206.9z M345.9,193.1L345.9,193.1l8.6,5.5h-5.8c0,0,0,0,0,0
	c0-0.1-0.1-0.1-0.2-0.1c0,0,0,0-0.1,0l-7.4-4.5l-2.8-5.3l0.4-8.3l3.9-3.9l-0.2,9.9l0,0.1L345.9,193.1z M341.2,177.2l-7,2.4l-4.6-1.4
	l-4.4-5.9c0,0,0,0,0,0c0,0,0,0,0,0l1.3-5.7l5.3,6.7l0,0.1l6.1,1.8l7.8-2.5L341.2,177.2z M335.5,166.9l7.9,2.4l11.4-5.8l-8.5,8.5
	l-8.5,2.7l-5.8-1.7l-5.5-7l2.4-10.8L335.5,166.9z M331.3,142.2C331.3,142.2,331.3,142.2,331.3,142.2c-0.2,0.1-0.2,0.2-0.2,0.3
	l0.1,0.1l-0.1,0.2c0,0-0.1,0-0.1,0l-12.6,14l-17.6,6.9l-18.9-2.1l-10.3-10.3l26.8,4.1l19.5-8.7l17-20.6l-0.2,0.8
	c-0.1,0.1-0.2,0.2-0.1,0.3l0,0.1L331.3,142.2z M292.6,146.5L292.6,146.5l23.7-11l0.1,0L341,98.6l-5.9,26.7c-0.1,0-0.1,0-0.1,0.1
	l-17.3,21l-19.3,8.6l-27.3-4.2l-11.9-11.9L292.6,146.5z M270.1,169.9L270.1,169.9l-11.4-30.7l11,11l9.4,25.3l-5,16.6L258,207.3
	l-15.5,2.1l21.3-18.5L270.1,169.9z"/>
</svg>
